<?xml version="1.0" encoding="utf-8"?>
<!-- Generator: Adobe Illustrator 16.0.0, SVG Export Plug-In . SVG Version: 6.00 Build 0)  -->
<!DOCTYPE svg PUBLIC "-//W3C//DTD SVG 1.1//EN" "http://www.w3.org/Graphics/SVG/1.1/DTD/svg11.dtd">
<svg version="1.1" id="Calque_1" xmlns="http://www.w3.org/2000/svg" xmlns:xlink="http://www.w3.org/1999/xlink" x="0px" y="0px"
	 width="1920px" height="1080px" viewBox="0 0 1920 1080" enable-background="new 0 0 1920 1080" xml:space="preserve">
<g>
	<path fill="#FFFFFF" d="M1125.45,683.516c-7.367,0-10.457,9.265-10.457,18.157c0,8.895,3.09,18.157,10.457,18.157
		s10.458-9.263,10.458-18.157C1135.908,692.78,1132.817,683.516,1125.45,683.516z"/>
	<path fill="#FFFFFF" d="M1093.272,683.516c-7.367,0-10.458,9.265-10.458,18.157c0,8.895,3.091,18.157,10.458,18.157
		s10.457-9.263,10.457-18.157C1103.729,692.78,1100.64,683.516,1093.272,683.516z"/>
	<path fill="#FFFFFF" d="M1134.521,563.761c14.42-30.241,22.5-64.086,22.5-99.822c0-128.25-103.967-232.217-232.218-232.217
		c-128.25,0-232.217,103.967-232.217,232.217c0,128.25,103.967,232.218,232.217,232.218c0.843,0,1.68-0.023,2.52-0.033
		c-0.131,2.579-0.197,5.175-0.197,7.785c0,83.41,67.619,151.028,151.029,151.028s151.028-67.618,151.028-151.028
		C1229.183,640.427,1190.01,586.099,1134.521,563.761z M1010.087,342.417l10.021-10.022l10.738,10.738l-0.358,115.253l-10.737,9.664
		l-10.738-9.664L1010.087,342.417z M793.539,586.525l-10.737,9.664l-10.738-9.664l1.074-115.969l10.021-10.022l10.738,10.738
		L793.539,586.525z M844.365,549.063c-19.507,19.507-37.94,15.51-37.94,15.51l9.426-10.856c0,0-3.102-4.057-9.545-10.977
		c9.307,0,30.066-8.353,30.066-27.8c0-28.873-24.34-33.406-24.34-33.406l-6.92-12.409c0,0,1.79-1.551,15.271-8.59
		c32.93,11.573,38.418,41.401,38.299,42.952C858.563,505.037,863.872,529.556,844.365,549.063z M904.259,392.646
		c35.793-19.208,64.786,12.051,67.41,15.869c2.625,3.818,10.142,15.152,10.142,32.81c-10.857-9.545-11.573-9.903-11.573-9.903
		l-10.977,10.022c0,0-0.955-31.736-31.856-31.736c-30.9,0-29.588,37.463-29.588,40.804l-11.096,11.215l-11.097-10.738
		C875.624,450.989,868.466,411.855,904.259,392.646z M930.746,524.246c-25.771,0-42.832-16.107-49.633-29.112
		s-5.488-25.771-5.488-25.771l10.737,10.261c0,0,5.607-5.369,11.453-10.5c0.955,20.641,17.301,31.976,30.663,31.976
		c34.838,0,30.782-41.759,30.782-41.759l11.454-10.619c0,0,0.716-0.119,11.335,10.738
		C982.05,503.844,956.517,524.246,930.746,524.246z M1002.667,724.668c-6.773,0-12.489-4.668-12.489-15.668h3.81
		c0,8,4.234,10.725,8.807,10.725c3.642,0,7.663-1.55,7.663-7.91c0-6.053-4.826-7.115-9.653-8.658
		c-4.826-1.545-9.695-3.594-9.695-11.684c0-8.955,5.462-12.661,10.966-12.661c6.182,0,10.881,4.188,11.135,14.188h-3.811
		c-0.466-7-3.344-9.25-7.493-9.25c-3.387,0-6.774,1.688-6.774,7.433c0,5.435,4.827,6.171,9.695,7.777
		c4.827,1.605,9.653,3.99,9.653,12.637C1014.479,720.984,1008.171,724.668,1002.667,724.668z M1031.839,724.752
		c-9.398,0-13.972-9.985-13.972-22.831c0-12.785,4.996-22.771,14.311-22.771c6.309,0,11.516,3.85,12.447,14.85h-4.022
		c-0.846-7-4.275-9.977-8.467-9.977c-7.198,0-10.246,8.263-10.246,17.464c0,10.066,3.048,18.391,10.288,18.391
		c5.292,0,8.341-4.878,8.722-12.878h4.022C1044.16,719,1039.46,724.752,1031.839,724.752z M1074,724h-4v-20h-16v20h-4v-44h4v19h16
		v-19h4V724z M1055.066,438.223l-13.602-9.067c0,0,0.835-1.79,8.591-13.363c18.015-5.727,22.669-19.686,22.669-29.112
		c0-28.992-30.066-31.378-30.066-31.378l9.664-10.499c0,0-2.267-3.222-10.022-11.454c22.073,1.074,52.377,13.72,52.974,54.524
		C1095.871,428.678,1055.066,438.223,1055.066,438.223z M1093.272,724.771c-9.611,0-14.48-11.117-14.48-23.099
		c0-11.98,4.869-23.098,14.48-23.098c9.61,0,14.479,11.117,14.479,23.098C1107.752,713.654,1102.883,724.771,1093.272,724.771z
		 M1125.45,724.771c-9.611,0-14.48-11.117-14.48-23.099c0-11.98,4.869-23.098,14.48-23.098c9.61,0,14.479,11.117,14.479,23.098
		C1139.93,713.654,1135.061,724.771,1125.45,724.771z M1165,724h-20v-44h3v39h17V724z"/>
</g>
</svg>
