<?xml version="1.0" encoding="utf-8"?>
<!-- Generator: Adobe Illustrator 16.0.0, SVG Export Plug-In . SVG Version: 6.00 Build 0)  -->
<!DOCTYPE svg PUBLIC "-//W3C//DTD SVG 1.1//EN" "http://www.w3.org/Graphics/SVG/1.1/DTD/svg11.dtd">
<svg version="1.1" id="Calque_1" xmlns="http://www.w3.org/2000/svg" xmlns:xlink="http://www.w3.org/1999/xlink" x="0px" y="0px"
	 width="1920px" height="1080px" viewBox="0 0 1920 1080" enable-background="new 0 0 1920 1080" xml:space="preserve">
<g>
	<path fill="#00ADA5" d="M1054.633,396.766c3.555-5.006,6.729-10.406,9.512-16.194c2.779-5.783,5.225-11.746,7.342-17.868
		c2.113-6.119,3.84-12.094,5.172-17.883c0.221-1.111,0.221-2.053,0-2.721c-0.223-0.667-0.779-0.1-1.666,0.9h-0.336
		c-6.23,10-12.016,20.909-17.354,31.809c-5.34,10.905-10.012,22.525-14.018,34.759
		C1047.291,406.01,1051.07,401.771,1054.633,396.766z"/>
	<path fill="#00ADA5" d="M819.905,593.143c-1.968-4.254-5.739-6.391-11.309-6.391c-4.592,0-9.092,2.137-13.519,6.391
		c-4.423,4.264-8.278,9.338-11.551,15.238c-3.28,5.9-5.823,11.883-7.619,17.941c-1.806,6.068-2.704,11.063-2.704,14.994
		c0.652,11.475,2.704,20.156,6.145,26.053c3.441,5.9,9.748,9.832,18.924,11.801c3.603-5.242,6.798-11.139,9.587-17.697
		c2.782-6.553,5.486-13.104,8.109-19.664c1.309-2.951,2.782-7.619,4.427-14.01c1.635-6.391,2.456-13.027,2.456-19.91
		C822.851,602.318,821.869,597.406,819.905,593.143z"/>
	<path fill="#00ADA5" d="M1125.389,471.366c3.113-1.554,6.225-3.447,9.346-5.674c3.111-2.221,5.838-4.725,8.176-7.509
		c2.334-2.779,4.172-5.783,5.506-9.011c1.336-3.223,2.002-6.508,2.002-9.845c-0.225-5.341-2.283-8.564-6.174-9.68
		c-3.896-1.11-8.4,0.225-13.516,4.006c-9.346,6.455-16.412,13.35-21.193,20.693c-4.787,7.343-8.627,15.91-11.516,25.699
		c4.672-0.887,9.398-2.112,14.184-3.671C1116.986,474.819,1121.383,473.15,1125.389,471.366z"/>
	<path fill="#00ADA5" d="M748.379,687.655c-7.707-8.355-12.375-18.153-14.01-29.628c-2.297,4.914-4.104,10.159-5.409,15.726
		c-1.312,5.576-1.968,11.632-1.968,18.185c0,9.504,1.883,16.128,5.654,19.89c3.764,3.775,8.433,5.628,14.01,5.628
		c4.584,0,9.664-1.198,15.241-3.497c5.566-2.287,10.813-4.958,15.728-8.958h1.477C766.321,702,756.075,696.015,748.379,687.655z"/>
	<path fill="#00ADA5" d="M935.915,656.064c4.583-2.287,9.169-5.078,13.764-8.357c4.583-3.271,8.601-6.959,12.042-11.063
		c3.44-4.094,6.145-8.518,8.109-13.27c1.969-4.748,2.949-9.586,2.949-14.504c-0.33-7.865-3.363-12.609-9.092-14.256
		c-5.738-1.633-12.375,0.33-19.909,5.9c-13.764,9.51-24.172,19.664-31.215,30.479c-7.051,10.814-12.705,23.434-16.959,37.852
		c6.882-1.305,13.841-3.111,20.892-5.41C923.539,661.15,930.015,658.691,935.915,656.064z"/>
	<path fill="#00ADA5" d="M824.014,471.366c3.112-1.554,6.225-3.447,9.345-5.674c3.112-2.221,5.839-4.725,8.175-7.509
		c2.337-2.779,4.173-5.783,5.506-9.011c1.336-3.223,2.003-6.508,2.003-9.845c-0.224-5.341-2.284-8.564-6.173-9.68
		c-3.896-1.11-8.402,0.225-13.517,4.006c-9.345,6.455-16.411,13.35-21.193,20.693c-4.787,7.343-8.626,15.91-11.515,25.699
		c4.673-0.887,9.397-2.112,14.185-3.671C815.611,474.819,820.008,473.15,824.014,471.366z"/>
	<path fill="#00ADA5" d="M980.873,396.766c3.555-5.006,6.729-10.406,9.514-16.194c2.777-5.783,5.223-11.746,7.34-17.868
		c2.113-6.119,3.84-12.094,5.174-17.883c0.219-1.111,0.219-2.053,0-2.721c-0.223-0.667-0.781-0.1-1.666,0.9h-0.338
		c-6.23,10-12.014,20.909-17.354,31.809c-5.338,10.905-10.012,22.525-14.018,34.759C973.531,406.01,977.311,401.771,980.873,396.766
		z"/>
	<path fill="#00ADA5" d="M0-3v1086h1920V-3H0z M888.925,381.919c0.109-1.111,0.276-2.222,0.5-3.338
		c1.109-6.451,3.839-11.901,8.175-16.354c4.339-4.449,8.846-6.675,13.518-6.675s8.345,1.727,11.015,5.174
		c2.67,3.452,4.006,7.733,4.006,12.849c0,1.116-0.057,2.228-0.166,3.338c-0.115,1.116-0.282,2.227-0.5,3.338
		c-1.118,6.456-3.787,11.849-8.012,16.188c-4.23,4.337-8.902,6.507-14.018,6.507c-4.454,0-8.009-1.668-10.682-5.006
		c-2.67-3.337-4.003-7.561-4.003-12.683C888.758,384.146,888.81,383.035,888.925,381.919z M525.801,545.628
		c-2.56-0.558-6.063-1.282-10.512-2.17c-2.896-0.667-5.899-2.001-9.012-4.004c-3.12-2.003-5.957-4.339-8.512-7.009
		c-2.56-2.67-4.672-5.622-6.342-8.845c-1.667-3.229-2.503-6.399-2.503-9.513c5.118-21.36,9.957-39.993,14.52-55.904
		c4.556-15.906,8.786-29.757,12.682-41.553c3.892-11.791,7.619-21.914,11.181-30.372c3.556-8.454,6.952-16.021,10.179-22.697
		c3.225-6.675,6.228-12.792,9.012-18.356c2.779-5.558,5.509-11.456,8.178-17.689c3.113-7.561,5.559-13.292,7.343-17.188
		c1.779-3.89,2.555-6.284,2.336-7.176c-0.224-0.887-1.56-0.5-4.006,1.168c-2.451,1.669-6.342,4.287-11.682,7.844
		c-8.678,5.788-16.745,11.847-24.196,18.189c-7.459,6.341-15.188,12.296-23.197,17.856c-8.012,5.565-16.58,10.128-25.699,13.684
		c-9.125,3.562-19.583,5.34-31.375,5.34c-5.339,0-10.795-0.667-16.354-2.002c-5.564-1.334-10.572-3.447-15.021-6.342
		c-4.451-2.889-8.066-6.785-10.845-11.682c-2.784-4.892-4.172-10.899-4.172-18.022c0-4.225,0.219-7.062,0.667-8.512
		c0.443-1.444,1.055-2.113,1.836-2.002c0.776,0.114,1.555,0.781,2.336,2.002c0.777,1.225,1.503,2.17,2.17,2.837
		c10.681,11.572,33.711,13.683,69.088,6.34c6.676-1.553,13.851-4.391,21.527-8.51c7.676-4.115,15.63-8.678,23.863-13.684
		c8.23-5.006,16.523-10.014,24.866-15.019c8.345-5.006,16.521-9.179,24.533-12.517c3.555-1.335,7.618-1.001,12.181,1.002
		c4.559,2.002,8.789,4.673,12.682,8.011c3.892,3.337,6.895,6.899,9.012,10.68c2.112,3.787,2.612,7.008,1.503,9.679
		c-2.003,3.786-4.563,9.345-7.676,16.688c-3.12,7.342-6.623,15.801-10.515,25.365c-3.896,9.569-7.957,20.024-12.181,31.373
		c-4.23,11.348-8.459,22.86-12.685,34.542c-4.227,11.682-8.29,23.308-12.182,34.874c-3.896,11.573-7.29,22.469-10.179,32.701
		c8.009-15.128,17.13-31.607,27.369-49.412c10.231-17.798,21.193-35.573,32.875-53.262c11.681-17.69,23.749-34.603,36.211-50.624
		c12.46-16.021,24.699-30.041,36.714-41.836c0-0.219,0.219-0.902,0.67-1.902h1l0.51,0.133v0.668c2,0.448,5.194,1.783,8.424,4.004
		c3.222,2.227,6.137,4.787,8.923,7.677c2.779,2.893,5.058,5.955,6.842,9.178c1.776,3.228,2.555,5.954,2.336,8.176
		c-8.679,17.355-16.411,33.432-23.196,48.226c-6.79,14.801-12.632,29.261-17.523,43.387c-4.896,14.133-8.845,28.314-11.849,42.551
		c-3.003,14.242-5.063,29.364-6.175,45.384c5.784-14.686,12.96-31.331,21.529-49.912c8.562-18.576,18.131-37.411,28.703-56.435
		c10.564-19.023,22.026-37.44,34.378-55.129c12.348-17.689,25.199-33.101,38.547-46.008c0-0.219,0.219-0.902,0.67-1.902h1
		l0.391,0.133v0.668c2,0.448,5.256,1.783,8.483,4.004c3.222,2.227,6.199,4.787,8.983,7.677c2.779,2.893,5.058,5.955,6.842,9.179
		c1.779,3.228,2.555,5.955,2.337,8.177c-10.239,20.474-19.191,40.551-26.87,60.244c-7.675,19.692-14.075,39.383-19.19,59.075
		c-5.12,19.693-8.902,39.666-11.348,59.909c-2.451,20.246-3.454,41.163-3.003,62.749c0,2.443,0.052,4.504,0.167,6.172
		c0.109,1.67,0,2.947-0.334,3.838c-0.333,0.889-1.227,1.221-2.669,1.004c-1.45-0.225-3.62-1.117-6.508-2.672
		c-3.121-1.334-6.233-3.117-9.345-5.34c-3.121-2.227-5.9-4.62-8.345-7.176c-2.451-2.561-4.396-5.172-5.84-7.844
		c-1.451-2.67-2.169-5.12-2.169-7.342c-0.227-18.471,0.719-36.212,2.836-53.234c2.113-17.022,5.173-33.543,9.178-49.563
		c4.006-16.021,8.731-31.759,14.185-47.227c5.448-15.462,11.4-31.092,17.856-46.894c-10.015,14.467-19.917,30.597-29.705,48.396
		c-9.793,17.804-19.081,35.661-27.869,53.568c-8.792,17.913-16.914,35.102-24.365,51.565c-7.457,16.47-13.851,30.483-19.19,42.055
		c0.219,3.338-0.057,5.506-0.833,6.508c-0.784,1.001-3.621,0.277-8.512-2.17c-3.118-1.335-6.233-3.118-9.345-5.339
		c-3.117-2.227-5.899-4.621-8.345-7.175c-2.451-2.562-4.396-5.174-5.839-7.843c-1.451-2.67-2.169-5.122-2.169-7.343
		c-0.224-17.354,0.609-33.318,2.503-47.895c1.888-14.57,4.558-28.369,8.008-41.386c3.449-13.017,7.564-25.701,12.351-38.049
		c4.782-12.35,10.064-24.975,15.854-37.882c-11.129,15.133-22.419,31.43-33.877,48.896c-11.463,17.47-22.363,34.769-32.708,51.9
		c-10.348,17.137-19.807,33.434-28.369,48.896c-8.569,15.462-15.521,28.87-20.86,40.218
		C529.417,544.46,528.356,546.182,525.801,545.628z M1369.477,621.162l-4.916,11.305c-5.244,13.111-10.816,26.225-16.715,39.33
		c-5.896,13.111-12.779,25.236-20.646,36.375c-7.213,10.16-14.746,18.758-22.611,25.807c-7.867,7.043-17.699,11.875-29.496,14.502
		c-1.645,0.322-3.609,0.568-5.898,0.736c-2.295,0.16-4.262,0.244-5.896,0.244c-7.869,0-15.732-2.047-23.598-6.141
		c-7.867-4.105-14.258-10.902-19.172-20.4l-9.832-19.664l-0.982,1.473c-5.578,7.547-11.061,15.079-16.469,22.614
		c-5.41,7.533-10.898,15.398-16.469,23.596c-2.293,2.949-4.836,4.667-7.619,5.157c-2.787,0.496-5.332,0.16-7.619-0.982
		c-2.297-1.15-3.854-2.956-4.672-5.409c-0.82-2.459-0.414-5.341,1.232-8.614l10.814-15.749l28.02-40.341h-0.492l2.561-2.391v-0.49
		l1.176-1.969c-4.262-9.502-7.506-17.527-10.127-24.086c-1.112-2.775-2.13-5.396-3.064-7.878c-0.993,2.293-2.018,4.67-3.078,7.142
		c-4.422,10.322-9.422,20.729-14.99,31.213c-3.609,6.23-7.619,13.113-12.047,20.646c-4.424,7.543-9.176,14.334-14.256,20.4
		c-5.082,6.063-10.49,10.646-16.219,13.766c-5.738,3.109-11.553,3.357-17.453,0.736c-10.492-4.592-17.943-10.408-22.365-17.451
		c-4.424-7.043-7.129-14.332-8.113-21.873c-2.947,5.576-6.311,11.145-10.074,16.713c-3.773,5.566-7.791,10.4-12.045,14.5
		c-4.262,4.094-8.852,7.043-13.766,8.85c-4.914,1.797-10,1.553-15.236-0.738c-11.801-5.574-19.832-12.863-24.092-21.873
		c-3.218-6.804-5.213-13.746-6-20.832c-0.459,0.469-0.9,0.947-1.365,1.412c-12.129,12.129-26.055,22.283-41.783,30.479
		c-15.732,8.189-32.615,12.613-50.634,13.273c-21.305,0.652-37.529-5-48.665-16.961c-8.171-8.765-12.623-20.049-13.395-33.837
		c-1.251,0.819-2.518,1.617-3.808,2.378c-9.179,5.404-19.664,8.277-31.46,8.6c-7.545,9.51-16.468,17.777-26.792,24.828
		c-10.323,7.043-21.877,10.891-34.656,11.551c-10.495,0.324-19.587-0.98-27.283-3.934c-7.707-2.949-14.013-7.127-18.927-12.535
		c-4.914-5.406-8.602-11.873-11.06-19.414c-2.459-7.539-3.686-15.564-3.686-24.092c0-3.854,0.215-7.722,0.64-11.603
		c-3.769,0.689-7.75,1.116-11.941,1.28c-2.95,5.576-6.391,11.555-10.323,17.945c-3.932,6.391-7.864,12.617-11.8,18.678
		c-3.932,6.066-7.787,11.639-11.551,16.715c-3.771,5.078-7.127,8.766-10.077,11.059c-4.262,3.604-8.355,6.063-12.291,7.373
		c-3.932,1.309-7.703,1.969-11.305,1.969c-5.577,0-10.814-1.721-15.728-5.16c-4.918-3.441-9.18-7.953-12.782-13.52
		c-3.609-5.568-6.476-11.799-8.604-18.682c-2.133-6.881-3.364-13.764-3.687-20.646c0-16.055,0.813-32.027,2.458-47.928
		c1.635-15.893,4.914-32.197,9.833-48.91c2.62-10.156,3.764-15.734,3.441-16.715c-0.33-2.621,0.982-4.5,3.932-5.654
		c2.95-1.145,6.713-1.721,11.305-1.721c8.52,0,15.318,2.541,20.4,7.619c5.08,5.084,7.619,12.215,7.619,21.383
		c0,3.611-0.245,6.807-0.737,9.586c-0.491,2.791-1.066,5.494-1.719,8.111c-4.595,15.732-8.036,29.666-10.323,41.787
		c-2.298,12.125-3.441,24.418-3.441,36.865c0,6.559,0.814,11.232,2.456,14.01c1.638,2.787,3.763,4.182,6.391,4.182
		c2.95,0,6.223-1.639,9.833-4.918c3.602-3.273,7.043-7.289,10.323-12.043c3.272-4.748,6.307-9.586,9.095-14.504
		c2.782-4.914,5.16-9.006,7.128-12.287c-7.212-3.932-12.129-8.766-14.746-14.502c-2.628-5.73-3.936-11.713-3.936-17.943
		c0-4.914,1.147-9.832,3.441-14.746c2.29-4.914,5.079-9.258,8.359-13.027c3.272-3.764,6.959-6.883,11.06-9.342
		c4.093-2.455,7.941-3.688,11.554-3.688c5.566,0,10.323,2.629,14.255,7.869c3.932,5.244,5.896,14.422,5.896,27.527
		c-0.66,4.262-1.151,6.967-1.473,8.109c-0.33,1.154-1.15,3.527-2.459,7.127c2.668-0.819,5.12-1.746,7.403-2.76
		c2.534-6.628,5.627-13.08,9.308-19.357c5.567-9.504,12.288-18.27,20.155-26.301c7.864-8.027,16.542-14.992,26.051-20.893
		c2.291-1.637,5.57-1.473,9.833,0.49c4.254,1.969,8.19,4.592,11.8,7.865c5.566-5.238,11.712-9.498,18.433-12.779
		c6.714-3.271,13.68-5.24,20.892-5.898c13.104-0.322,22.2,3.686,27.283,12.043c5.079,8.355,7.619,17.943,7.619,28.758
		c0,7.863-0.906,15.568-2.701,23.105c-1.807,7.541-3.691,14.094-5.655,19.658c-3.28,10.164-7.542,20.648-12.782,31.465
		c5.57-1.967,10.975-5.324,16.223-10.076c2.348-2.129,4.627-4.434,6.846-6.894c1.563-6.342,3.61-12.569,6.178-18.671
		c4.746-11.307,10.73-21.629,17.942-30.969c7.205-9.342,15.237-17.613,24.087-24.824c8.85-7.205,18.019-12.943,27.528-17.205
		c9.172-4.254,18.51-6.391,28.019-6.391c6.553,0,13.104,0.982,19.665,2.949c6.551,1.965,12.291,4.914,17.205,8.846
		c4.912,3.936,8.764,8.936,11.551,14.994c2.779,6.07,3.689,13.199,2.705,21.385c-3.281,18.025-9.834,32.123-19.666,42.275
		c-9.828,10.16-21.467,18.191-34.901,24.086c-9.51,4.266-19.008,7.707-28.51,10.324c-9.51,2.627-18.188,4.596-26.056,5.898
		c0.653,6.561,3.112,12.215,7.374,16.959c4.258,4.758,9.502,7.129,15.732,7.129c10.813,0,21.544-3.027,32.197-9.092
		c10.648-6.061,20.65-13.924,29.986-23.596c9.342-9.664,17.943-20.725,25.811-33.184c1.968-3.115,3.854-6.242,5.656-9.378
		c1.794-6.539,3.682-13.079,5.641-19.626c3.604-11.797,6.799-22.771,9.588-32.934c2.781-10.156,4.008-17.367,3.686-21.629
		c-0.33-1.967,0.652-3.445,2.951-4.426c2.289-0.982,5.408-1.475,9.34-1.475c2.949,0,6.223,0.492,9.832,1.475
		c3.604,0.98,6.959,2.627,10.078,4.916c3.111,2.295,5.727,5.082,7.865,8.355c2.129,3.279,3.195,7.375,3.195,12.293
		c0,3.607-0.66,8.277-1.969,14.008c-1.313,5.74-3.771,14.34-7.373,25.807l-19.17,63.414c-2.297,6.561-3.441,11.969-3.441,16.225
		c0,2.627,1.061,3.279,3.193,1.965c2.129-1.307,4.672-3.766,7.621-7.375c2.949-3.602,6.219-7.863,9.832-12.781
		c3.604-4.914,6.881-9.832,9.83-14.746c3.936-7.533,7.943-15.236,12.045-23.105c4.092-7.865,7.449-15.068,10.076-21.627
		c1.635-6.223,3.197-12.615,4.668-19.174c1.479-6.553,2.783-12.449,3.934-17.697c1.146-5.236,2.045-9.746,2.705-13.518
		c0.652-3.764,0.813-6.146,0.49-7.129c-0.33-2.619,1.063-4.584,4.182-5.898c3.111-1.305,6.959-1.965,11.551-1.965
		c1.967,0,4.008,0.168,6.146,0.492c2.123,0.328,4.008,0.82,5.65,1.473c6.551,2.629,11.139,6.145,13.764,10.568
		c2.619,4.426,3.936,9.754,3.936,15.977c0,2.629-0.168,5.002-0.492,7.127c-0.332,2.139-0.824,4.512-1.477,7.129
		c-0.658,1.316-1.557,4.266-2.705,8.85c-1.15,4.592-2.539,9.832-4.176,15.732c-1.643,5.896-3.281,12.125-4.914,18.678
		c-1.646,6.561-3.279,12.705-4.918,18.434c-1.643,5.738-2.949,10.656-3.934,14.75c-0.982,4.102-1.645,6.637-1.967,7.617
		c-1.965,7.865-2.947,13.273-2.947,16.225c0,2.295,0.898,2.871,2.701,1.717c1.799-1.143,4.182-3.439,7.129-6.881
		c2.949-3.441,6.145-7.616,9.586-12.532c3.439-4.918,6.959-9.992,10.568-15.24c6.553-12.453,12.537-24.652,17.945-36.623
		c3.381-7.475,6.279-13.895,8.699-19.261c0.666-2.259,1.775-5.251,3.34-8.996c1.637-3.934,3.518-7.932,5.654-12.031
		c2.125-4.098,4.422-8.171,6.881-12.272c2.457-4.092,5.16-7.036,8.109-10.036h-0.49c5.236-6,9.586-7.083,13.027-4.464
		c3.441,2.625,6.959,9.138,10.57,19.62l12.285,38.345l10.328-14.751c4.914-6.551,9.826-13.519,14.744-20.892
		c4.916-7.375,9.994-14.858,15.238-22.858H1276v-0.49c2-1.963,4.292-3.439,7.409-4.422c3.111-0.982,5.771-1.475,8.397-1.475
		c3.932,0,6.959,1.068,9.096,3.197c2.125,2.131,2.371,5.65,0.736,10.568c-9.51,14.424-18.766,27.775-27.773,40.061
		c-9.02,12.291-18.275,24.828-27.773,37.605c2.615,6.559,5.236,12.705,7.863,18.436c2.619,5.74,4.914,9.918,6.881,12.535
		c3.604,5.576,6.883,10,9.834,13.271c2.949,3.279,6.881,4.758,11.795,4.428c5.57,0,10.57-1.553,14.996-4.672
		c4.424-3.111,8.271-6.637,11.551-10.57c3.932-4.912,7.865-10.645,11.797-17.203c3.936-6.553,7.783-13.35,11.555-20.4
		c3.764-7.043,7.203-14.172,10.322-21.383c3.111-7.207,5.973-13.926,8.6-20.156c1.969-2.291,4.094-3.686,6.393-4.176
		c2.289-0.492,4.422-0.248,6.391,0.734s3.518,2.629,4.668,4.914C1369.885,615.1,1370.129,617.889,1369.477,621.162z
		 M1464.475,449.004c-2.449,7.343-5.621,13.909-9.512,19.692c-3.895,5.788-8.068,10.904-12.516,15.353
		c-4.453,4.454-9.068,8.459-13.85,12.016c-4.789,3.562-9.293,6.674-13.52,9.345c-1.113,2.669-2.115,4.954-3.002,6.842
		c-0.893,1.892-2.227,3.947-4.008,6.174c-3.787,4.223-9.125,7.452-16.02,9.678c-6.898,2.222-13.574,3.338-20.023,3.338
		c-2.896,0-5.508-0.166-7.844-0.5c-2.336-0.335-4.287-1.059-5.84-2.169c-4.9-3.119-7.066-6.509-6.51-10.18
		c0.553-3.671,2.504-7.176,5.84-10.514c3.338-3.338,7.344-6.226,12.018-8.678c4.672-2.446,8.785-4.004,12.348-4.673
		c-1.559-3.556-3.119-6.893-4.672-10.012c-1.561-3.114-3.119-6.227-4.672-9.345c-0.572-1.143-1.144-2.297-1.716-3.461
		c-1.044,2.325-2.136,4.698-3.29,7.132c-2.002,4.229-4.004,8.344-6.004,12.35c-2.455,4.453-5.232,9.236-8.346,14.351
		c-3.117,5.121-6.398,9.788-9.846,14.018c-3.455,4.225-7.123,7.394-11.014,9.512c-3.896,2.112-7.957,2.279-12.184,0.501
		c-8.01-3.787-13.465-8.736-16.354-14.853c-2.895-6.117-4.34-12.402-4.34-18.857c0-7.563,1.277-14.962,3.838-22.196
		c2.557-7.229,4.725-14.737,6.51-22.528c-2.476-0.135-4.903-0.44-7.294-0.876l-1.048,2.545c-2.225,4.897-4.838,10.847-7.844,17.856
		c-3.002,7.009-6.396,14.075-10.178,21.194c-2.451,4.229-5.174,8.902-8.178,14.018c-3.006,5.121-6.23,9.731-9.682,13.851
		c-3.451,4.116-7.121,7.228-11.012,9.346c-3.896,2.112-7.844,2.279-11.85,0.501c-7.123-3.119-12.182-7.066-15.186-11.85
		c-3.002-4.782-4.838-9.73-5.506-14.851c-2.004,3.786-4.285,7.566-6.844,11.347c-2.561,3.782-5.289,7.062-8.178,9.847
		c-2.893,2.779-6.006,4.782-9.344,6.007c-3.336,1.221-6.789,1.054-10.346-0.5c-8.012-3.787-13.465-8.736-16.357-14.853
		c-2.184-4.618-3.539-9.332-4.073-14.141c-0.311,0.317-0.609,0.642-0.925,0.957c-8.238,8.236-17.691,15.129-28.371,20.694
		c-10.682,5.56-22.143,8.564-34.377,9.011c-14.467,0.443-25.48-3.395-33.043-11.515c-1.661-1.782-3.082-3.726-4.293-5.813
		c-3.817,5.296-8.058,9.405-12.727,12.322c-5.34,3.338-10.68,5.006-16.021,5.006c-8.457,0-16.02-3.785-22.693-11.348
		c-5.179-5.866-8.744-14.091-10.709-24.647c-3.416,6.081-6.744,11.519-9.984,16.304c-4.227,6.452-9.01,11.349-14.352,14.686
		c-5.338,3.338-10.678,5.006-16.021,5.006c-8.457,0-16.02-3.785-22.693-11.348c-6.095-6.902-9.956-17.067-11.601-30.463
		c-0.898,1.791-1.807,3.592-2.75,5.433c-2.003,3.338-4.396,7.399-7.176,12.181c-2.784,4.787-5.898,9.121-9.344,13.016
		c-3.454,3.891-7.066,6.895-10.848,9.012c-3.787,2.112-7.676,2.279-11.682,0.501c-7.123-3.561-12.405-8.345-15.854-14.352
		c-2.817-4.905-4.462-10.109-4.979-15.607c-0.616,0.642-1.225,1.289-1.858,1.922c-8.236,8.236-17.69,15.129-28.37,20.694
		c-10.681,5.56-22.144,8.564-34.377,9.011c-14.465,0.443-25.48-3.395-33.041-11.515c-7.569-8.12-10.458-19.409-8.679-33.876
		c0.886-8.229,2.946-16.188,6.176-23.864c3.222-7.675,7.285-14.684,12.181-21.026c4.892-6.341,10.346-11.958,16.354-16.854
		c6.009-4.891,12.234-8.788,18.691-11.681c6.228-2.89,12.567-4.339,19.023-4.339c4.449,0,8.898,0.667,13.352,2.002
		c4.449,1.335,8.345,3.336,11.681,6.007c3.337,2.67,5.952,6.065,7.843,10.18c1.888,4.119,2.505,8.958,1.836,14.518
		c-2.227,12.241-6.676,21.81-13.351,28.704c-6.673,6.899-14.575,12.348-23.697,16.354c-6.457,2.896-12.906,5.231-19.357,7.009
		c-6.456,1.784-12.348,3.119-17.69,4.004c0.443,4.454,2.112,8.293,5.006,11.515c2.891,3.229,6.451,4.841,10.681,4.841
		c7.342,0,14.627-2.055,21.86-6.175c7.23-4.114,14.021-9.455,20.36-16.021c6.342-6.56,12.182-14.07,17.523-22.528
		c1.663-2.632,3.229-5.276,4.718-7.93c0.984-3.739,1.969-7.658,2.953-11.762c1.336-5.559,2.555-10.68,3.672-15.352
		c1.109-4.673,2.003-8.731,2.67-12.183c0.667-3.447,1.002-5.617,1.002-6.508c-0.449-1.779,0.387-3.057,2.503-3.839
		c2.11-0.776,4.726-1.168,7.842-1.168c3.113,0,5.892,0.449,8.345,1.335c4.004,1.561,6.783,3.896,8.343,7.009
		c1.556,3.119,2.337,6.566,2.337,10.347c0,2.452-0.224,4.84-0.667,7.176c-0.448,2.336-0.894,4.395-1.336,6.174l-14.351,54.402
		c-1.333,5.121-1.894,8.567-1.669,10.346c0.219,1.783,0.835,2.501,1.836,2.168c1.002-0.335,2.336-1.559,4.006-3.674
		c1.669-2.113,3.446-4.455,5.339-7.017c1.889-2.555,3.615-5.071,5.173-7.521c1.555-2.446,2.781-4.7,3.672-5.7h-0.333
		c4.673-8,8.897-16.715,12.682-24.839c0.387-0.832,0.757-1.606,1.124-2.399c0.274-4.326,0.667-8.738,1.213-13.263
		c1.779-14.796,4.892-29.589,9.345-44.39c4.448-14.795,10.288-28.979,17.521-42.555c7.228-13.57,15.739-25.585,25.532-36.045
		c2.893-2.889,5.895-5.059,9.012-6.51c3.115-1.444,6.01-2.169,8.678-2.169c5.117,0,9.232,1.669,12.35,5.007
		c3.115,3.338,4.781,8.458,5.006,15.352c0,9.57-1.281,19.306-3.836,29.205c-2.561,9.903-6.176,19.357-10.85,28.369
		c-4.672,9.011-10.293,17.137-16.854,24.365c-6.566,7.232-13.74,12.849-21.525,16.854c-2.454,10.014-4.174,20.308-5.176,30.874
		c-1,10.57-1.281,21.527-0.834,32.875c0.219,4.453,1.053,7.677,2.503,9.68c1.444,2.002,3.279,3.003,5.507,3.003
		c5.342,0,10.898-3.557,16.689-10.68c0.885-1.111,2.17-2.669,3.836-4.673c1.67-2.003,3.559-4.949,5.676-8.845
		c2.113-3.89,4.615-9.01,7.508-15.353c0.705-1.547,1.424-3.201,2.156-4.953c0.214-6.257,0.709-12.72,1.516-19.411
		c1.777-14.796,4.891-29.589,9.344-44.39c4.449-14.795,10.287-28.979,17.521-42.555c7.229-13.57,15.738-25.585,25.533-36.045
		c2.891-2.889,5.895-5.059,9.012-6.51c3.115-1.444,6.008-2.169,8.678-2.169c5.115,0,9.23,1.669,12.35,5.007
		c3.113,3.338,4.781,8.458,5.004,15.352c0,9.57-1.281,19.306-3.836,29.205c-2.561,9.903-6.176,19.357-10.848,28.369
		c-4.672,9.011-10.293,17.137-16.854,24.365c-6.568,7.232-13.742,12.849-21.527,16.854c-2.453,10.014-4.172,20.308-5.176,30.874
		c-1,10.57-1.281,21.527-0.832,32.875c0.219,4.453,1.051,7.677,2.502,9.68c1.445,2.002,3.279,3.003,5.506,3.003
		c5.342,0,10.9-3.557,16.689-10.68c0.887-1.111,2.17-2.669,3.838-4.673c0.229-0.274,0.461-0.569,0.697-0.878
		c0.061-1.979,0.209-4.017,0.469-6.131c0.887-8.229,2.945-16.188,6.176-23.864c3.223-7.675,7.285-14.684,12.182-21.026
		c4.891-6.341,10.346-11.958,16.355-16.854c6.008-4.891,12.232-8.788,18.688-11.681c6.229-2.89,12.568-4.339,19.025-4.339
		c4.447,0,8.896,0.667,13.352,2.002c4.447,1.335,8.344,3.336,11.682,6.007c3.336,2.67,5.949,6.065,7.84,10.18
		c1.889,4.119,2.508,8.958,1.838,14.518c-2.225,12.241-6.676,21.81-13.352,28.704c-6.672,6.899-14.574,12.348-23.695,16.354
		c-6.457,2.896-12.906,5.231-19.357,7.009c-6.457,1.784-12.35,3.119-17.689,4.004c0.443,4.454,2.111,8.293,5.004,11.515
		c2.891,3.229,6.453,4.841,10.682,4.841c7.344,0,14.627-2.055,21.861-6.175c7.229-4.114,14.02-9.455,20.359-16.021
		c6.344-6.56,12.182-14.07,17.523-22.528c1.336-2.115,2.617-4.238,3.842-6.368c1.218-4.439,2.499-8.88,3.828-13.325
		c2.445-8.01,4.617-15.462,6.512-22.361c1.887-6.895,2.719-11.792,2.502-14.686c-0.227-1.335,0.441-2.336,2.002-3.004
		c1.555-0.667,3.674-1,6.342-1c2.002,0,4.225,0.333,6.676,1c2.445,0.668,4.725,1.784,6.842,3.337
		c2.113,1.561,3.889,3.453,5.342,5.674c1.445,2.228,2.166,5.008,2.166,8.344c0,2.452-0.447,5.622-1.336,9.513
		c-0.891,3.895-2.559,9.736-5.004,17.522l-13.016,43.055c-1.561,4.454-2.336,8.125-2.336,11.014c0,1.784,0.717,2.227,2.166,1.336
		c1.445-0.888,3.174-2.557,5.176-5.008c2.002-2.445,4.223-5.338,6.676-8.676c2.445-3.338,4.674-6.676,6.674-10.014
		c2.672-5.116,5.393-10.347,8.178-15.686c2.779-5.34,5.059-10.232,6.84-14.686c1.113-4.225,2.172-8.563,3.172-13.017
		c1.002-4.449,1.889-8.454,2.668-12.016c0.779-3.557,1.389-6.617,1.836-9.179c0.443-2.555,0.553-4.171,0.336-4.839
		c-0.225-1.777,0.723-3.112,2.838-4.004c2.111-0.887,4.725-1.335,7.842-1.335c1.336,0,2.723,0.115,4.174,0.333
		c1.441,0.224,2.723,0.558,3.836,1.002c4.447,1.782,7.564,4.171,9.344,7.175c1.779,3.004,2.674,6.624,2.674,10.847
		c0,1.784-0.115,3.395-0.334,4.839c-0.225,1.451-0.561,3.062-1.004,4.841c-0.447,0.89-1.057,2.893-1.836,6.007
		c-0.779,3.119-1.723,6.675-2.834,10.68c-1.115,4.005-2.229,8.234-3.336,12.683c-1.119,4.454-2.229,8.626-3.34,12.516
		c-1.115,3.895-2.004,7.232-2.67,10.012c-0.666,2.785-1.117,4.506-1.338,5.174c-1.334,5.339-2,9.012-2,11.014
		c0,1.56,0.609,1.95,1.834,1.167c1.221-0.776,2.84-2.335,4.84-4.672c2.002-2.336,4.174-5.173,6.51-8.51
		c2.334-3.337,4.723-6.785,7.176-10.347c4.447-8.453,8.51-16.74,12.184-24.864c2.635-5.829,4.831-10.695,6.607-14.634
		c-0.432-0.285-0.855-0.579-1.271-0.887c-3.002-2.222-5.455-5.058-7.342-8.511c-1.893-3.447-2.838-7.619-2.838-12.516
		c0-2.669,0.387-5.617,1.168-8.845c0.777-3.222,1.945-6.393,3.504-9.512c1.555-3.112,3.557-5.893,6.008-8.343
		c2.445-2.446,5.447-4.224,9.012-5.341c2.889-0.885,5.674-0.833,8.344,0.168c2.672,1,4.895,2.618,6.674,4.839
		c1.779,2.228,3.117,4.897,4.008,8.011c0.883,3.118,1.002,6.341,0.332,9.679c-0.666,3.562-1.449,6.509-2.336,8.845
		c-0.891,2.336-2.004,5.73-3.338,10.178c3.338,0.893,6.51,1.336,9.512,1.336c3.006,0,6.396,0.557,10.182,1.668
		c4.004,1.558,6.785,3.895,8.344,7.008c1.555,3.119,2.336,6.566,2.336,10.347c0,2.67-0.225,5.173-0.668,7.509
		c-0.449,2.337-1.002,4.506-1.668,6.509c-3.563,10.013-5.955,17.022-7.176,21.027c-1.229,4.005-2.059,6.566-2.502,7.677
		c-1.336,5.339-1.951,8.96-1.838,10.847c0.109,1.894,0.719,2.619,1.838,2.169c1.109-0.442,2.553-1.667,4.338-3.67
		c1.777-2.003,3.555-4.339,5.34-7.009c1.779-2.669,3.445-5.283,5.006-7.843c1.555-2.555,2.779-4.506,3.672-5.841
		c2.223-4.224,4.447-8.511,6.676-12.85c2.221-4.339,4.223-8.454,6.006-12.35c0.81-1.77,1.58-3.476,2.32-5.132
		c-1.221-2.871-2.44-5.878-3.658-9.052c-0.668-2.003-1.336-4.392-2.002-7.176c-0.668-2.779-1.002-5.283-1.002-7.51
		c0-4.004,0.555-8.344,1.668-13.017c1.111-4.672,2.838-9.063,5.176-13.183c2.336-4.115,5.281-7.677,8.844-10.68
		c3.557-3.004,7.785-5.059,12.682-6.175c5.559-1.112,9.846-0.11,12.85,3.004c3.006,3.119,4.506,6.675,4.506,10.68
		c0,2.67-0.391,5.564-1.168,8.678c-0.781,3.118-1.727,6.174-2.838,9.178c-1.117,3.004-2.449,5.79-4.004,8.345
		c-1.561,2.56-3.004,4.73-4.34,6.508c5.559,9.345,10.623,18.639,15.188,27.868c4.557,9.236,7.729,17.414,9.512,24.533
		c7.785-4.449,14.852-10.624,21.193-18.523c6.342-7.896,11.4-15.854,15.184-23.864c0.889-1.779,2.223-2.889,4.008-3.338
		c1.779-0.442,3.504-0.385,5.174,0.167c1.668,0.559,3.004,1.502,4.004,2.838C1464.979,445.333,1465.143,447.002,1464.475,449.004z"
		/>
</g>
</svg>
